<?xml version="1.0" standalone="no"?><!DOCTYPE svg PUBLIC "-//W3C//DTD SVG 1.1//EN" "http://www.w3.org/Graphics/SVG/1.1/DTD/svg11.dtd"><svg t="1707818247887" class="icon" viewBox="0 0 1024 1024" version="1.1" xmlns="http://www.w3.org/2000/svg" p-id="6361" xmlns:xlink="http://www.w3.org/1999/xlink" width="200" height="200"><path d="M768 160a128 128 0 0 1 128 128v448a128 128 0 0 1-128 128H256a128 128 0 0 1-128-128V288a128 128 0 0 1 128-128h512z m-64 480h-224a32 32 0 0 0 0 64h224a32 32 0 0 0 0-64z m-326.624-242.752a32 32 0 0 0-42.144-5.888l-2.976 2.24a32 32 0 0 0-5.888 42.144l52.16 78.24-52.16 78.272-1.888 3.2a32 32 0 0 0 55.136 32.288l64-96 2.144-3.68a32 32 0 0 0-2.144-31.808l-64-96z" fill="#225448" p-id="6362"></path></svg>