<?xml version="1.0" standalone="no"?><!DOCTYPE svg PUBLIC "-//W3C//DTD SVG 1.1//EN" "http://www.w3.org/Graphics/SVG/1.1/DTD/svg11.dtd"><svg t="1707818767267" class="icon" viewBox="0 0 1024 1024" version="1.1" xmlns="http://www.w3.org/2000/svg" p-id="14648" xmlns:xlink="http://www.w3.org/1999/xlink" width="200" height="200"><path d="M433.066667 217.6c0-14.933333-10.666667-27.733333-25.6-29.866667L134.4 149.333333c-4.266667 0-8.533333 0-10.666667 2.133334-4.266667 2.133333-6.4 4.266667-8.533333 6.4-2.133333 2.133333-4.266667 6.4-6.4 10.666666-2.133333 2.133333-2.133333 6.4-2.133333 12.8v663.466667c0 4.266667 0 8.533333 2.133333 12.8 2.133333 4.266667 4.266667 6.4 6.4 10.666667 2.133333 2.133333 6.4 4.266667 8.533333 6.4h10.666667L405.333333 836.266667c14.933333-2.133333 25.6-14.933333 25.6-29.866667 0-19.2-14.933333-32-34.133333-29.866667L160 804.266667V219.733333l236.8 27.733334c19.2 4.266667 36.266667-10.666667 36.266667-29.866667zM838.4 469.333333c-2.133333 0-6.4 0-8.533333-2.133333l-6.4-6.4c-2.133333-2.133333-4.266667-6.4-4.266667-10.666667-2.133333-4.266667-2.133333-8.533333-2.133333-12.8v-61.866666c0-4.266667 0-8.533333 2.133333-12.8 2.133333-4.266667 2.133333-6.4 4.266667-8.533334l6.4-6.4c2.133333-2.133333 6.4-2.133333 8.533333-2.133333 2.133333 0 6.4 2.133333 8.533333 2.133333l6.4 6.4c2.133333 2.133333 4.266667 6.4 4.266667 10.666667 2.133333 4.266667 2.133333 8.533333 2.133333 12.8v59.733333c0 4.266667 0 8.533333-2.133333 10.666667-2.133333 4.266667-2.133333 6.4-4.266667 8.533333l-6.4 6.4c-2.133333 6.4-6.4 6.4-8.533333 6.4m21.333333-313.6L550.4 106.666667c-10.666667-2.133333-19.2 0-27.733333 2.133333-8.533333 4.266667-17.066667 8.533333-23.466667 14.933333-6.4 6.4-12.8 17.066667-17.066667 25.6-4.266667 10.666667-6.4 21.333333-6.4 34.133334V832c0 12.8 2.133333 23.466667 6.4 34.133333 4.266667 10.666667 8.533333 19.2 17.066667 27.733334 6.4 6.4 14.933333 12.8 23.466667 14.933333 8.533333 4.266667 19.2 4.266667 27.733333 2.133333l309.333333-46.933333c8.533333-2.133333 14.933333-4.266667 23.466667-10.666667 6.4-4.266667 12.8-12.8 19.2-19.2 4.266667-8.533333 8.533333-17.066667 12.8-27.733333 2.133333-10.666667 4.266667-21.333333 4.266667-32V243.2c0-10.666667-2.133333-21.333333-4.266667-32s-6.4-19.2-12.8-27.733333l-19.2-19.2c-8.533333-4.266667-14.933333-8.533333-23.466667-8.533334" p-id="14649" fill="#225448"></path></svg>